<svg xmlns="http://www.w3.org/2000/svg" viewBox="0 0 111.37 92.52"><defs><style>.cls-1{fill:#dcdddd}</style></defs><g id="图层_2" data-name="图层 2"><g id="图层_1-2" data-name="图层 1"><circle class="cls-1" cx="50.77" cy="52.52" r="40"/><path d="M69.71 31.94l3.1-3.09L77 33.08l4.23-4.23 3.1 3.09-4.24 4.23 4.23 4.23-3.09 3.09L77 39.27l-4.23 4.22-3.05-3.09L74 36.17zm23.78 4.23a16.16 16.16 0 10-16.16 16.15 16.15 16.15 0 0016.16-16.15zM75 65.94H33.13L18.7 23.28a2.87 2.87 0 00-2.9-1.88H3.05a2.88 2.88 0 100 5.76h10.56L28 69.82a2.88 2.88 0 002.9 1.87H75a2.88 2.88 0 100-5.75zM68 77a6 6 0 106 6 6 6 0 00-6-6zm9.37-19a21.85 21.85 0 01-21.89-21.83 22.3 22.3 0 01.73-5.64l-26.49-2.31a1.87 1.87 0 00-2.08 2.64L36.71 58a4.8 4.8 0 004 3.11h37.9A3.7 3.7 0 0082 57.85v-.34a22 22 0 01-4.67.49zM39.2 77a6 6 0 106 6 6 6 0 00-6-6z" fill="#323333"/><path class="cls-1" d="M87.94 17.98L88.71 0l11.64 1.08-12.41 16.9zm3.41 2l11.29-14.02 8.73 7.77-20.02 6.25z"/></g></g></svg>